<svg width="140" height="24" viewBox="0 0 140 24" fill="none" xmlns="http://www.w3.org/2000/svg">
  <path
    d="M101.904 9.52887C102.508 10.1753 102.812 11.0781 102.812 12.236V17.1057C102.812 17.3552 102.732 17.5633 102.574 17.7273C102.416 17.8927 102.206 17.9741 101.947 17.9741C101.698 17.9741 101.491 17.8914 101.328 17.7273C101.163 17.5633 101.082 17.3552 101.082 17.1057V12.236C101.082 11.544 100.909 11.0189 100.564 10.6605C100.22 10.3035 99.7585 10.1243 99.1819 10.1243C98.5943 10.1243 98.1111 10.3283 97.7322 10.7377C97.3533 11.1457 97.1638 11.6681 97.1638 12.3035V17.1043C97.1638 17.3538 97.0842 17.5619 96.9263 17.726C96.7684 17.8914 96.5584 17.9727 96.2989 17.9727C96.0504 17.9727 95.8431 17.89 95.6797 17.726C95.5164 17.5619 95.434 17.3538 95.434 17.1043V12.2346C95.434 11.5427 95.261 11.0175 94.9164 10.6591C94.5718 10.3021 94.1106 10.1229 93.5339 10.1229C92.934 10.1229 92.4453 10.3269 92.0677 10.7363C91.6888 11.1443 91.4993 11.6667 91.4993 12.3021V17.1029C91.4993 17.3524 91.4197 17.5605 91.2618 17.7246C91.104 17.89 90.8939 17.9713 90.6344 17.9713C90.386 17.9713 90.1786 17.8886 90.0153 17.7246C89.8519 17.5605 89.7695 17.3524 89.7695 17.1029V9.52612C89.7695 9.26561 89.8519 9.05472 90.0153 8.89621C90.1786 8.7377 90.386 8.65775 90.6344 8.65775C90.8829 8.65775 91.0861 8.73494 91.2454 8.88794C91.4032 9.04094 91.4884 9.24217 91.4993 9.49303C91.7931 9.19807 92.1432 8.96788 92.551 8.80386C92.9573 8.63983 93.3994 8.55713 93.873 8.55713C94.4497 8.55713 94.9672 8.67429 95.4244 8.90586C95.8816 9.1388 96.2577 9.47098 96.5515 9.90241C96.8906 9.48201 97.3148 9.15258 97.8228 8.9155C98.3321 8.67705 98.8964 8.55851 99.5183 8.55851C100.505 8.55851 101.299 8.88242 101.904 9.52887Z"
    fill="#6059A6"
  />
  <path
    d="M113.782 13.6917C113.636 13.8337 113.449 13.904 113.222 13.904H106.778C106.903 14.698 107.261 15.3403 107.854 15.8282C108.447 16.3161 109.174 16.5601 110.033 16.5601C110.372 16.5601 110.725 16.4981 111.093 16.3727C111.461 16.2472 111.763 16.0942 112 15.9137C112.158 15.7882 112.345 15.7262 112.561 15.7262C112.775 15.7262 112.945 15.7827 113.07 15.8971C113.273 16.068 113.375 16.261 113.375 16.476C113.375 16.68 113.284 16.8509 113.103 16.9874C112.718 17.2934 112.241 17.5443 111.67 17.7372C111.098 17.9302 110.553 18.0267 110.033 18.0267C109.106 18.0267 108.274 17.8254 107.54 17.423C106.805 17.0205 106.232 16.4609 105.818 15.7455C105.405 15.0301 105.199 14.2183 105.199 13.3113C105.199 12.403 105.394 11.5884 105.784 10.8675C106.174 10.1466 106.716 9.58562 107.412 9.18176C108.107 8.77928 108.896 8.57666 109.778 8.57666C110.648 8.57666 111.4 8.76963 112.033 9.15557C112.666 9.54151 113.152 10.0804 113.491 10.7724C113.83 11.4643 114.001 12.2596 114.001 13.1556C114.003 13.3706 113.929 13.5498 113.782 13.6917ZM107.772 10.7214C107.257 11.1749 106.933 11.7827 106.797 12.5436H112.444C112.342 11.7827 112.059 11.1762 111.595 10.7214C111.131 10.2679 110.527 10.0405 109.78 10.0405C108.955 10.0405 108.285 10.2665 107.772 10.7214Z"
    fill="#6059A6"
  />
  <path
    d="M120.674 16.4921C120.815 16.6506 120.885 16.856 120.885 17.1055C120.885 17.355 120.792 17.5589 120.605 17.7188C120.419 17.8773 120.178 17.9573 119.884 17.9573H119.58C119.025 17.9573 118.52 17.8126 118.061 17.5231C117.604 17.2337 117.244 16.8394 116.985 16.3405C116.724 15.8415 116.595 15.2791 116.595 14.6547V10.4494H115.815C115.578 10.4494 115.386 10.3818 115.239 10.2454C115.092 10.1089 115.018 9.93939 115.018 9.73401C115.018 9.50658 115.09 9.32602 115.239 9.18956C115.386 9.05311 115.578 8.98556 115.815 8.98556H116.595V6.53346C116.595 6.28398 116.675 6.07999 116.833 5.9201C116.99 5.76159 117.194 5.68164 117.443 5.68164C117.692 5.68164 117.895 5.76159 118.054 5.9201C118.212 6.07861 118.292 6.28398 118.292 6.53346V8.98556H119.733C119.971 8.98556 120.163 9.05311 120.31 9.18956C120.457 9.32602 120.531 9.50796 120.531 9.73401C120.531 9.93801 120.457 10.1089 120.31 10.2454C120.163 10.3818 119.971 10.4494 119.733 10.4494H118.292V14.6547C118.292 15.1082 118.417 15.4887 118.665 15.796C118.914 16.102 119.219 16.255 119.581 16.255H120.158C120.361 16.2536 120.533 16.3336 120.674 16.4921Z"
    fill="#6059A6"
  />
  <path
    d="M131.114 13.6917C130.968 13.8337 130.781 13.904 130.554 13.904H124.11C124.235 14.698 124.593 15.3403 125.186 15.8282C125.779 16.3161 126.506 16.5601 127.365 16.5601C127.704 16.5601 128.057 16.4981 128.425 16.3727C128.793 16.2472 129.095 16.0942 129.332 15.9137C129.49 15.7882 129.677 15.7262 129.893 15.7262C130.107 15.7262 130.277 15.7827 130.402 15.8971C130.605 16.068 130.707 16.261 130.707 16.476C130.707 16.68 130.616 16.8509 130.435 16.9874C130.05 17.2934 129.573 17.5443 129.002 17.7372C128.43 17.9302 127.885 18.0267 127.365 18.0267C126.438 18.0267 125.606 17.8254 124.872 17.423C124.138 17.0205 123.564 16.4609 123.15 15.7455C122.737 15.0301 122.531 14.2183 122.531 13.3113C122.531 12.403 122.726 11.5884 123.116 10.8675C123.506 10.1466 124.048 9.58562 124.744 9.18176C125.439 8.77928 126.228 8.57666 127.11 8.57666C127.98 8.57666 128.733 8.76963 129.365 9.15557C129.998 9.54151 130.484 10.0804 130.823 10.7724C131.162 11.4643 131.333 12.2596 131.333 13.1556C131.335 13.3706 131.261 13.5498 131.114 13.6917ZM125.103 10.7214C124.588 11.1749 124.264 11.7827 124.128 12.5436H129.775C129.673 11.7827 129.39 11.1762 128.926 10.7214C128.462 10.2679 127.858 10.0405 127.111 10.0405C126.287 10.0405 125.617 10.2665 125.103 10.7214Z"
    fill="#6059A6"
  />
  <path
    d="M139.491 8.81433C139.83 8.99627 140 9.22232 140 9.49524C140 9.57518 139.995 9.63169 139.984 9.66615C139.882 10.03 139.656 10.2106 139.306 10.2106C139.249 10.2106 139.164 10.1996 139.052 10.1761C138.6 10.0962 138.232 10.0576 137.949 10.0576C137.135 10.0576 136.479 10.2451 135.982 10.62C135.484 10.9949 135.237 11.4994 135.237 12.1348V17.1065C135.237 17.3795 135.165 17.589 135.025 17.7364C134.884 17.8839 134.672 17.9584 134.389 17.9584C134.118 17.9584 133.909 17.8881 133.762 17.7461C133.615 17.6041 133.541 17.3919 133.541 17.1079V9.49799C133.541 9.22508 133.614 9.01557 133.762 8.86808C133.909 8.7206 134.118 8.64617 134.389 8.64617C134.955 8.64617 135.238 8.93011 135.238 9.49799V9.82191C135.577 9.42494 135.996 9.11205 136.493 8.886C136.99 8.65857 137.521 8.54555 138.087 8.54555C138.682 8.54141 139.152 8.63238 139.491 8.81433Z"
    fill="#6059A6"
  />
  <path
    d="M45.4754 10.1788C46.0589 10.7758 46.3521 11.6097 46.3521 12.6791V17.1768C46.3521 17.4072 46.2751 17.5995 46.1226 17.7509C45.9701 17.9024 45.7671 17.9788 45.5165 17.9788C45.2764 17.9788 45.0761 17.9024 44.9183 17.7509C44.7591 17.5995 44.6809 17.4072 44.6809 17.1768V12.6791C44.6809 12.04 44.5138 11.5549 44.1809 11.2239C43.848 10.8942 43.4023 10.7287 42.8452 10.7287C42.2776 10.7287 41.8107 10.9171 41.4446 11.2952C41.0786 11.6721 40.8955 12.1546 40.8955 12.7414V17.1755C40.8955 17.4059 40.8186 17.5982 40.6661 17.7497C40.5136 17.9012 40.3106 17.9776 40.06 17.9776C39.8199 17.9776 39.6196 17.9012 39.4618 17.7497C39.304 17.5982 39.2244 17.4059 39.2244 17.1755V12.6778C39.2244 12.0387 39.0573 11.5537 38.7244 11.2227C38.3914 10.8929 37.9458 10.7275 37.3887 10.7275C36.8091 10.7275 36.337 10.9159 35.9722 11.294C35.6062 11.6708 35.4231 12.1533 35.4231 12.7402V17.1742C35.4231 17.4047 35.3462 17.5969 35.1937 17.7484C35.0411 17.8999 34.8382 17.9763 34.5875 17.9763C34.3475 17.9763 34.1472 17.8999 33.9894 17.7484C33.8315 17.5969 33.752 17.4047 33.752 17.1742V10.1762C33.752 9.9356 33.8315 9.74083 33.9894 9.59442C34.1472 9.44802 34.3475 9.37418 34.5875 9.37418C34.8276 9.37418 35.0239 9.44547 35.1778 9.58678C35.3303 9.72809 35.4125 9.91396 35.4231 10.1457C35.707 9.87322 36.0452 9.66062 36.4391 9.50913C36.8317 9.35763 37.2588 9.28125 37.7163 9.28125C38.2734 9.28125 38.7734 9.38946 39.2151 9.60334C39.6568 9.81848 40.0202 10.1253 40.304 10.5238C40.6316 10.1355 41.0414 9.83121 41.5322 9.61225C42.0243 9.39201 42.5694 9.28252 43.1702 9.28252C44.1238 9.28252 44.8904 9.58169 45.4754 10.1788Z"
    fill="#6059A6"
  />
  <path
    d="M56.9505 14.0235C56.8086 14.1546 56.6282 14.2195 56.4093 14.2195H50.1835C50.3042 14.9541 50.6504 15.5461 51.2233 15.9968C51.7963 16.4474 52.498 16.6728 53.3282 16.6728C53.6559 16.6728 53.9967 16.6155 54.3522 16.4996C54.7076 16.385 54.9994 16.2425 55.2289 16.0757C55.3814 15.9598 55.5618 15.9025 55.77 15.9025C55.977 15.9025 56.1414 15.9547 56.2621 16.0604C56.4584 16.2183 56.5566 16.3965 56.5566 16.5951C56.5566 16.7835 56.469 16.9414 56.294 17.0674C55.9226 17.35 55.461 17.5817 54.9092 17.76C54.3575 17.9382 53.8309 18.0273 53.3282 18.0273C52.433 18.0273 51.6292 17.8414 50.9196 17.4684C50.21 17.0967 49.6556 16.5798 49.2564 15.9191C48.8572 15.2584 48.6582 14.5098 48.6582 13.6709C48.6582 12.8319 48.8465 12.0795 49.2232 11.4137C49.5999 10.7479 50.1238 10.2297 50.7963 9.85673C51.4674 9.48499 52.23 9.29785 53.0815 9.29785C53.9224 9.29785 54.6493 9.47608 55.2607 9.83254C55.8722 10.189 56.3417 10.6868 56.6693 11.3259C56.9969 11.9649 57.1614 12.6995 57.1614 13.527C57.164 13.7281 57.0924 13.8924 56.9505 14.0235ZM51.1438 11.28C50.6464 11.6989 50.3334 12.2603 50.2021 12.963H55.6573C55.5592 12.2603 55.2859 11.7001 54.8376 11.28C54.3893 10.8612 53.8057 10.6511 53.0842 10.6511C52.2871 10.6511 51.6398 10.8599 51.1438 11.28Z"
    fill="#6059A6"
  />
  <path
    d="M67.3067 5.90188C67.4592 6.04828 67.5361 6.24306 67.5361 6.48367V13.6549C67.5361 14.4722 67.3372 15.2144 66.9379 15.8802C66.5387 16.546 65.9989 17.0705 65.3159 17.4524C64.6328 17.8356 63.8715 18.0266 63.0306 18.0266C62.1897 18.0266 61.4218 17.8356 60.7281 17.4524C60.0344 17.0705 59.4906 16.546 59.098 15.8802C58.7054 15.2144 58.5078 14.4722 58.5078 13.6549C58.5078 12.8376 58.6908 12.0954 59.0569 11.4295C59.423 10.7637 59.9257 10.2418 60.5636 9.86494C61.2029 9.48811 61.9151 9.29843 62.7017 9.29843C63.3343 9.29843 63.9245 9.42446 64.471 9.67525C65.0174 9.92732 65.4816 10.2787 65.8636 10.7294V6.48367C65.8636 6.24306 65.9432 6.04828 66.101 5.90188C66.2589 5.75548 66.4591 5.68164 66.6992 5.68164C66.9512 5.68164 67.1541 5.75548 67.3067 5.90188ZM64.5134 16.2252C64.9551 15.968 65.3026 15.6141 65.5533 15.1634C65.8039 14.7128 65.9299 14.2099 65.9299 13.6536C65.9299 13.0985 65.8039 12.5969 65.5533 12.1514C65.3013 11.7058 64.9551 11.3544 64.5134 11.0973C64.0717 10.8401 63.577 10.7115 63.0306 10.7115C62.4841 10.7115 61.9907 10.8401 61.5478 11.0973C61.1048 11.3544 60.7559 11.7058 60.4986 12.1514C60.2413 12.5969 60.114 13.0973 60.114 13.6536C60.114 14.2099 60.2426 14.7128 60.4986 15.1634C60.7546 15.6141 61.1048 15.968 61.5478 16.2252C61.9894 16.4823 62.4841 16.6109 63.0306 16.6109C63.577 16.6109 64.0717 16.4823 64.5134 16.2252Z"
    fill="#6059A6"
  />
  <path
    d="M70.72 7.65549C70.5065 7.45053 70.4004 7.20737 70.4004 6.92475C70.4004 6.64213 70.5065 6.39771 70.72 6.19402C70.9336 5.99033 71.1869 5.88721 71.4813 5.88721C71.7758 5.88721 72.0304 5.98905 72.2426 6.19402C72.4562 6.39898 72.5623 6.64213 72.5623 6.92475C72.5623 7.20737 72.4562 7.4518 72.2426 7.65549C72.0291 7.86046 71.7758 7.9623 71.4813 7.9623C71.1869 7.9623 70.9336 7.86046 70.72 7.65549ZM70.8845 17.7356C70.7253 17.5841 70.6471 17.3919 70.6471 17.1615V10.1634C70.6471 9.92282 70.7267 9.72804 70.8845 9.58164C71.0423 9.43524 71.2426 9.3614 71.4827 9.3614C71.7333 9.3614 71.9363 9.43524 72.0888 9.58164C72.2413 9.72804 72.3183 9.92282 72.3183 10.1634V17.1615C72.3183 17.3919 72.2413 17.5841 72.0888 17.7356C71.9363 17.8871 71.7333 17.9635 71.4827 17.9635C71.2426 17.9635 71.0423 17.8884 70.8845 17.7356Z"
    fill="#6059A6"
  />
  <path
    d="M81.7794 9.87201C82.4625 10.2552 83.0023 10.7784 83.4015 11.4442C83.7994 12.1101 83.9997 12.8523 83.9997 13.6696V17.1769C83.9997 17.4073 83.9201 17.5995 83.7623 17.751C83.6031 17.9025 83.4042 17.9789 83.1641 17.9789C82.924 17.9789 82.7237 17.9025 82.5659 17.751C82.4081 17.5995 82.3285 17.4073 82.3285 17.1769V16.5951C81.9465 17.0458 81.4823 17.3971 80.9358 17.6492C80.3894 17.9013 79.7992 18.026 79.1665 18.026C78.38 18.026 77.6678 17.8376 77.0285 17.4595C76.3892 17.0827 75.8865 16.5607 75.5218 15.8949C75.1557 15.2291 74.9727 14.4869 74.9727 13.6696C74.9727 12.8523 75.169 12.1101 75.5629 11.4442C75.9555 10.7784 76.4993 10.2539 77.1929 9.87201C77.8866 9.48881 78.6532 9.29785 79.4955 9.29785C80.335 9.29785 81.0963 9.49008 81.7794 9.87201ZM80.977 16.2246C81.4186 15.9675 81.7661 15.6174 82.0168 15.1705C82.2675 14.7249 82.3935 14.2246 82.3935 13.6683C82.3935 13.1132 82.2675 12.6091 82.0168 12.1584C81.7648 11.7078 81.4186 11.3539 80.977 11.0967C80.5353 10.8395 80.0406 10.711 79.4941 10.711C78.9477 10.711 78.4543 10.8395 78.0113 11.0967C77.5683 11.3539 77.2195 11.7078 76.9622 12.1584C76.7048 12.6091 76.5775 13.112 76.5775 13.6683C76.5775 14.2246 76.7062 14.7249 76.9622 15.1705C77.2181 15.6161 77.5683 15.9675 78.0113 16.2246C78.453 16.4818 78.9477 16.6104 79.4941 16.6104C80.0392 16.6104 80.534 16.4818 80.977 16.2246Z"
    fill="#6059A6"
  />
  <path
    d="M11.622 0C5.20339 0 0 5.20322 0 11.6216C0 18.04 5.20339 23.2432 11.622 23.2432C18.0406 23.2432 23.244 18.04 23.244 11.6216C23.244 5.20322 18.0406 0 11.622 0ZM11.5706 21.7035C5.97411 21.7035 1.43705 17.1665 1.43705 11.5702C1.43705 5.97391 5.97411 1.437 11.5706 1.437C17.1671 1.437 21.7042 5.97391 21.7042 11.5702C21.7042 17.1665 17.1671 21.7035 11.5706 21.7035Z"
    fill="#6059A6"
  />
  <path
    d="M18.7255 11.9865L18.6488 11.8332C18.648 11.8308 18.6463 11.8291 18.6447 11.8267C18.6455 11.8275 18.6463 11.8283 18.6472 11.8291L16.5886 7.70083L16.5454 7.61356C16.4247 7.39989 16.1972 7.25391 15.9345 7.25391C15.6719 7.25391 15.446 7.39907 15.3245 7.61112L15.2796 7.70164L12.302 13.6723L9.32429 7.70164L9.28107 7.61438C9.16036 7.4007 8.93281 7.25472 8.6702 7.25472C8.40758 7.25472 8.18167 7.39989 8.06015 7.61193L8.01529 7.70246L4.45203 14.8467L4.43572 14.8793C4.43572 14.8801 4.43572 14.8801 4.4349 14.8809C4.3876 14.9747 4.35742 15.0799 4.35742 15.1925C4.35742 15.5815 4.67305 15.8971 5.06208 15.8971C5.36058 15.8971 5.61423 15.7112 5.71699 15.4494L8.66857 9.5301L11.6201 15.4494C11.7229 15.7112 11.9766 15.8971 12.2751 15.8971C12.284 15.8971 12.2922 15.8947 12.3003 15.8947C12.3093 15.8947 12.3175 15.8971 12.3256 15.8971C12.6241 15.8971 12.8778 15.7112 12.9805 15.4494L15.9321 9.5301L17.401 12.4759L17.4703 12.6153C17.5363 12.7483 17.6358 12.8673 17.768 12.9358C17.8365 12.9717 17.9123 12.997 17.9923 13.0092C18.2386 13.0459 18.4792 12.9252 18.6382 12.7344C18.6406 12.7311 18.6431 12.7287 18.6455 12.7254C18.8184 12.5175 18.8453 12.2271 18.7255 11.9865Z"
    fill="#6059A6"
  />
</svg>
