<svg width="25" height="25" viewBox="0 0 25 25" fill="none" xmlns="http://www.w3.org/2000/svg">
<g clip-path="url(#clip0_753_2247)">
<path d="M12.622 1C6.20339 1 1 6.20322 1 12.6216C1 19.04 6.20339 24.2432 12.622 24.2432C19.0406 24.2432 24.244 19.04 24.244 12.6216C24.244 6.20322 19.0406 1 12.622 1ZM12.5706 22.7035C6.97411 22.7035 2.43705 18.1665 2.43705 12.5702C2.43705 6.97391 6.97411 2.437 12.5706 2.437C18.1671 2.437 22.7042 6.97391 22.7042 12.5702C22.7042 18.1665 18.1671 22.7035 12.5706 22.7035Z" fill="white"/>
<path d="M19.7255 12.9865L19.6488 12.8332C19.648 12.8308 19.6463 12.8291 19.6447 12.8267L19.6472 12.8291L17.5886 8.70083L17.5454 8.61356C17.4247 8.39989 17.1972 8.25391 16.9345 8.25391C16.6719 8.25391 16.446 8.39907 16.3245 8.61112L16.2796 8.70164L13.302 14.6723L10.3243 8.70164L10.2811 8.61438C10.1604 8.4007 9.93281 8.25472 9.6702 8.25472C9.40758 8.25472 9.18167 8.39989 9.06015 8.61193L9.01529 8.70246L5.45203 15.8467L5.43572 15.8793L5.4349 15.8809C5.3876 15.9747 5.35742 16.0799 5.35742 16.1925C5.35742 16.5815 5.67305 16.8971 6.06208 16.8971C6.36058 16.8971 6.61423 16.7112 6.71699 16.4494L9.66857 10.5301L12.6201 16.4494C12.7229 16.7112 12.9766 16.8971 13.2751 16.8971C13.284 16.8971 13.2922 16.8947 13.3003 16.8947C13.3093 16.8947 13.3175 16.8971 13.3256 16.8971C13.6241 16.8971 13.8778 16.7112 13.9805 16.4494L16.9321 10.5301L18.401 13.4759L18.4703 13.6153C18.5363 13.7483 18.6358 13.8673 18.768 13.9358C18.8365 13.9717 18.9123 13.997 18.9923 14.0092C19.2386 14.0459 19.4792 13.9252 19.6382 13.7344C19.6406 13.7311 19.6431 13.7287 19.6455 13.7254C19.8184 13.5175 19.8453 13.2271 19.7255 12.9865Z" fill="white"/>
</g>
<defs>
<clipPath id="clip0_753_2247">
<rect width="25" height="25" fill="white"/>
</clipPath>
</defs>
</svg>
